<svg xmlns="http://www.w3.org/2000/svg" width="36" height="13" viewBox="0 0 36 13" fill="none"><path d="M14.6344 8.09306C16.2422 8.27128 17.8274 8.24428 19.4295 8.36309C20.2051 8.42249 21.9204 8.33069 22.5262 8.67632C21.6204 9.27038 16.2818 9.42159 18.3652 11.6952C19.7295 13.1858 23.2792 12.1705 24.9209 11.9815C27.242 11.7114 38.2759 12.1543 35.5811 7.57461C34.5338 5.79783 31.0917 4.66912 29.2688 3.84824C26.6193 2.65472 23.9245 1.77983 21.1505 0.910343C19.5823 0.418893 16.2422 0.0192535 19.0049 1.81223C21.1222 3.18937 24.0151 4.04266 25.8494 5.71142C22.6451 5.84644 19.3559 5.14977 16.0554 5.33879C12.1831 5.56021 8.23717 5.38739 4.3592 5.38199C3.7591 5.38199 -0.645363 4.89054 0.073616 6.4459C0.52652 7.42879 3.3062 7.28838 4.1837 7.35859C5.5141 7.4612 6.78222 7.62861 8.10695 7.75823C9.109 7.85544 10.1224 7.82303 11.1301 7.88784C12.1604 7.95265 13.6267 8.37929 14.6287 8.08766C16.2139 8.26588 13.7626 8.34149 14.6287 8.08766L14.6344 8.09306Z" fill="white"></path></svg>